<svg xmlns="http://www.w3.org/2000/svg" viewBox="0 0 640 420" role="img" aria-labelledby="title desc"><title id="title">Dedicated server illustration</title><desc id="desc">Minimal rack server illustration.</desc><defs><linearGradient id="a" x1="0" y1="0" x2="1" y2="1"><stop stop-color="#152944"/><stop offset="1" stop-color="#0a1423"/></linearGradient></defs><rect width="640" height="420" rx="32" fill="url(#a)"/><rect x="165" y="66" width="310" height="288" rx="28" fill="#0b1829" stroke="#345c79" stroke-width="3"/><g fill="#10243b" stroke="#2f5875" stroke-width="2"><rect x="198" y="104" width="244" height="56" rx="12"/><rect x="198" y="182" width="244" height="56" rx="12"/><rect x="198" y="260" width="244" height="56" rx="12"/></g><g fill="#6df0bd"><circle cx="220" cy="132" r="6"/><circle cx="220" cy="210" r="6"/><circle cx="220" cy="288" r="6"/></g><g fill="#9fc3df"><rect x="246" y="125" width="102" height="8" rx="4"/><rect x="246" y="203" width="102" height="8" rx="4"/><rect x="246" y="281" width="102" height="8" rx="4"/></g><g fill="#18314a"><rect x="370" y="120" width="44" height="24" rx="6"/><rect x="370" y="198" width="44" height="24" rx="6"/><rect x="370" y="276" width="44" height="24" rx="6"/></g><path d="M500 144c36 18 58 54 58 95 0 56-42 103-97 109" fill="none" stroke="#4fd1ff" stroke-width="4" stroke-linecap="round"/><circle cx="502" cy="145" r="7" fill="#4fd1ff"/></svg>